<?xml version="1.0" encoding="utf-8"?>
<!-- Generator: Adobe Illustrator 21.1.0, SVG Export Plug-In . SVG Version: 6.00 Build 0)  -->
<svg version="1.1" id="Calque_1" xmlns="http://www.w3.org/2000/svg" xmlns:xlink="http://www.w3.org/1999/xlink" x="0px" y="0px"
	 viewBox="0 0 343.6 243.1" style="enable-background:new 0 0 343.6 243.1;" xml:space="preserve">
<style type="text/css">
	.st0{opacity:0.4;fill:none;stroke:#412884;stroke-width:0.5059;stroke-miterlimit:10;enable-background:new    ;}
</style>
<path class="st0" d="M74.3,242.9L0.1,197.5 M78.8,237.8L4.2,185.2 M83.2,232.7l-75-59.8 M87.7,227.6l-75.4-67.1 M92.2,222.5
	l-75.8-74.3 M96.6,217.4l-76.2-81.5 M101,212.3l-76.5-88.8 M105.5,207.2l-76.9-96 M109.9,202.1L32.6,98.8 M114.4,196.9L36.7,86.5
	 M118.8,191.8L40.7,74.1 M123.3,186.8l-78.5-125 M127.7,181.7L48.8,49.4 M132.1,176.6L52.9,37.1 M136.6,171.5L56.9,24.8 M141,166.3
	L61,12.5 M145.5,161.2L65.1,0.1 M247.5,183.9l-86.6-90.8 M244.2,183.2l-86.4-93 M240.9,182.4l-86.2-95.3 M237.6,181.7l-86-97.6
	 M234.4,181l-85.8-99.8 M231.1,180.3L145.5,78.1 M227.8,179.5L142.4,75.1 M224.5,178.8L139.3,72.1 M221.2,178l-85-108.9
	 M217.9,177.3L133.1,66.1 M214.6,176.6L130,63.1 M211.3,175.9L126.9,60.1 M208,175.1l-84.2-118 M204.7,174.4l-84-120.3 M201.4,173.7
	L117.6,51.1 M198.1,172.9L114.6,48.1 M194.8,172.2L111.5,45.1 M191.6,171.5L108.4,42.1 M188.3,170.7l-83-131.6 M185,170L102.2,36.1
	 M181.7,169.3L99.1,33.1 M178.4,168.5L96,30.1 M175.1,167.8L92.9,27.1 M171.8,167.1l-82-143 M168.5,166.3L86.7,21.1 M165.2,165.6
	L83.6,18.1 M161.9,164.9L80.5,15.1 M158.7,164.2L77.4,12.1 M155.3,163.4L74.3,9.1 M152,162.7L71.3,6.1 M148.8,161.9L68.2,3.1
	 M145.5,161.2L65.1,0.1 M160.9,93.1l86.6,90.8 M165.8,90.2l84.8,93 M170.7,87.1l83,95.3 M175.6,84.1l81.2,97.6 M180.5,81.2
	l79.4,99.9 M185.4,78.1L263,180.3 M190.2,75.1l75.8,104.4 M195.1,72.1l74,106.7 M200.1,69.1L272.3,178 M204.9,66.1l70.4,111.2
	 M209.8,63.1l68.6,113.5 M214.7,60.1l66.8,115.7 M219.6,57.1l65.1,118 M224.5,54.1l63.2,120.3 M229.3,51.1l61.5,122.6 M234.3,48.1
	l59.6,124.8 M239.2,45.1L297,172.2 M244,42.1l56.1,129.4 M248.9,39.1l54.3,131.6 M253.8,36.1L306.3,170 M258.7,33.1l50.7,136.2
	 M263.6,30.1l48.9,138.4 M268.4,27.1l47.1,140.7 M273.4,24.1l45.3,143 M278.3,21.1l43.5,145.2 M283.1,18.1l41.7,147.5 M288,15.1
	l39.9,149.8 M292.9,12.1L331,164.2 M297.8,9.1l36.3,154.3 M302.7,6.1l34.5,156.6 M307.6,3.1l32.7,158.8 M312.5,0.1l30.9,161.1"/>
</svg>
